  0
SECTION
  2
BLOCKS
  0
ENDSEC
  0
SECTION
  2
ENTITIES
  0
LINE
  8
0
 10
0
 20
0
 11
12
 21
0
  0
LINE
  8
0
 10
12
 20
0
 11
12
 21
14.9858
  0
LINE
  8
0
 10
12
 20
14.9858
 11
11
 21
14.8203
  0
LINE
  8
0
 10
11
 20
14.8203
 11
11
 21
7.41837
  0
LINE
  8
0
 10
11
 20
7.41837
 11
10.75
 21
7.41837
  0
LINE
  8
0
 10
10.75
 20
7.41837
 11
10.75
 21
14.779
  0
LINE
  8
0
 10
10.75
 20
14.779
 11
1.25
 21
13.2069
  0
LINE
  8
0
 10
1.25
 20
13.2069
 11
1.25
 21
6.58163
  0
LINE
  8
0
 10
1.25
 20
6.58163
 11
1
 21
6.58163
  0
LINE
  8
0
 10
1
 20
6.58163
 11
1
 21
13.1655
  0
LINE
  8
0
 10
1
 20
13.1655
 11
0
 21
13
  0
LINE
  8
0
 10
0
 20
13
 11
0
 21
0
  0
LINE
  8
0
 10
2.25
 20
1
 11
2.25
 21
11
  0
LINE
  8
0
 10
2.25
 20
11
 11
9.75
 21
11
  0
LINE
  8
0
 10
9.75
 20
11
 11
9.75
 21
1
  0
LINE
  8
0
 10
9.75
 20
1
 11
2.25
 21
1
  0
LINE
  8
0
 10
0
 20
16.5
 11
1
 21
16.5
  0
LINE
  8
0
 10
1
 20
16.5
 11
1
 21
23.0816
  0
LINE
  8
0
 10
1
 20
23.0816
 11
1.25
 21
23.0816
  0
LINE
  8
0
 10
1.25
 20
23.0816
 11
1.25
 21
16.5
  0
LINE
  8
0
 10
1.25
 20
16.5
 11
14.75
 21
16.5
  0
LINE
  8
0
 10
14.75
 20
16.5
 11
14.75
 21
23.0816
  0
LINE
  8
0
 10
14.75
 20
23.0816
 11
15
 21
23.0816
  0
LINE
  8
0
 10
15
 20
23.0816
 11
15
 21
16.5
  0
LINE
  8
0
 10
15
 20
16.5
 11
16
 21
16.5
  0
LINE
  8
0
 10
16
 20
16.5
 11
16
 21
29.6633
  0
LINE
  8
0
 10
16
 20
29.6633
 11
12.8
 21
29.6633
  0
LINE
  8
0
 10
12.8
 20
29.6633
 11
12.8
 21
30.75
  0
LINE
  8
0
 10
12.8
 20
30.75
 11
3.2
 21
30.75
  0
LINE
  8
0
 10
3.2
 20
30.75
 11
3.2
 21
29.6633
  0
LINE
  8
0
 10
3.2
 20
29.6633
 11
0
 21
29.6633
  0
LINE
  8
0
 10
0
 20
29.6633
 11
0
 21
16.5
  0
LINE
  8
0
 10
2.25
 20
17.5
 11
2.25
 21
27.6256
  0
LINE
  8
0
 10
2.25
 20
27.6256
 11
13.75
 21
27.6256
  0
LINE
  8
0
 10
13.75
 20
27.6256
 11
13.75
 21
17.5
  0
LINE
  8
0
 10
13.75
 20
17.5
 11
2.25
 21
17.5
  0
LINE
  8
0
 10
13.2
 20
0
 11
25.2
 21
0
  0
LINE
  8
0
 10
25.2
 20
0
 11
25.2
 21
14.9858
  0
LINE
  8
0
 10
25.2
 20
14.9858
 11
24.2
 21
14.8203
  0
LINE
  8
0
 10
24.2
 20
14.8203
 11
24.2
 21
7.41837
  0
LINE
  8
0
 10
24.2
 20
7.41837
 11
23.95
 21
7.41837
  0
LINE
  8
0
 10
23.95
 20
7.41837
 11
23.95
 21
14.779
  0
LINE
  8
0
 10
23.95
 20
14.779
 11
14.45
 21
13.2069
  0
LINE
  8
0
 10
14.45
 20
13.2069
 11
14.45
 21
6.58163
  0
LINE
  8
0
 10
14.45
 20
6.58163
 11
14.2
 21
6.58163
  0
LINE
  8
0
 10
14.2
 20
6.58163
 11
14.2
 21
13.1655
  0
LINE
  8
0
 10
14.2
 20
13.1655
 11
13.2
 21
13
  0
LINE
  8
0
 10
13.2
 20
13
 11
13.2
 21
0
  0
LINE
  8
0
 10
15.45
 20
1
 11
15.45
 21
11
  0
LINE
  8
0
 10
15.45
 20
11
 11
22.95
 21
11
  0
LINE
  8
0
 10
22.95
 20
11
 11
22.95
 21
1
  0
LINE
  8
0
 10
22.95
 20
1
 11
15.45
 21
1
  0
LINE
  8
0
 10
17.6
 20
16.5
 11
18.6
 21
16.5
  0
LINE
  8
0
 10
18.6
 20
16.5
 11
18.6
 21
23.9184
  0
LINE
  8
0
 10
18.6
 20
23.9184
 11
18.85
 21
23.9184
  0
LINE
  8
0
 10
18.85
 20
23.9184
 11
18.85
 21
16.5
  0
LINE
  8
0
 10
18.85
 20
16.5
 11
32.35
 21
16.5
  0
LINE
  8
0
 10
32.35
 20
16.5
 11
32.35
 21
23.9184
  0
LINE
  8
0
 10
32.35
 20
23.9184
 11
32.6
 21
23.9184
  0
LINE
  8
0
 10
32.6
 20
23.9184
 11
32.6
 21
16.5
  0
LINE
  8
0
 10
32.6
 20
16.5
 11
33.6
 21
16.5
  0
LINE
  8
0
 10
33.6
 20
16.5
 11
33.6
 21
31.3367
  0
LINE
  8
0
 10
33.6
 20
31.3367
 11
17.6
 21
31.3367
  0
LINE
  8
0
 10
17.6
 20
31.3367
 11
17.6
 21
16.5
  0
LINE
  8
0
 10
19.85
 20
17.5
 11
19.85
 21
27.6256
  0
LINE
  8
0
 10
19.85
 20
27.6256
 11
31.35
 21
27.6256
  0
LINE
  8
0
 10
31.35
 20
27.6256
 11
31.35
 21
17.5
  0
LINE
  8
0
 10
31.35
 20
17.5
 11
19.85
 21
17.5
  0
LINE
  8
0
 10
26.4
 20
0
 11
42.4
 21
0
  0
LINE
  8
0
 10
42.4
 20
0
 11
42.4
 21
12.1655
  0
LINE
  8
0
 10
42.4
 20
12.1655
 11
26.4
 21
12.1655
  0
LINE
  8
0
 10
26.4
 20
12.1655
 11
26.4
 21
0
  0
LINE
  8
0
 10
29.6
 20
0.986393
 11
29.6
 21
1.31803
  0
LINE
  8
0
 10
29.6
 20
1.31803
 11
39.2
 21
1.31803
  0
LINE
  8
0
 10
39.2
 20
1.31803
 11
39.2
 21
0.986393
  0
LINE
  8
0
 10
39.2
 20
0.986393
 11
29.6
 21
0.986393
  0
ENDSEC
  0
SECTION
  2
OBJECTS
  0
DICTIONARY
  0
ENDSEC
  0
EOF
